# xmcd CD database file
#
# Track frame offsets:
#	150
#	8878
#	27713
#	43891
#	61057
#	74122
#	93335
#	108835
#	118800
#	137466
#	153985
#	172551
#	185355
#	228291
#
# Disc length: 4297 seconds
#
# Revision: 0
# Processed by: cddbd v1.5.1PL2 Copyright (c) Steve Scherf et al.
# Submitted via: CDex 1.51
#
DISCID=b310c70e
DTITLE=LiTHe Blås - LiTHe Blås spelar en skiva till kaffet
DYEAR=2006
DGENRE=Jazz
TTITLE0=Brandbilen !!!
TTITLE1=That Old Black Magic
TTITLE2=That's A Plenty
TTITLE3=En schottis på Hawaj
TTITLE4=Instant Concert
TTITLE5=Min brorsa
TTITLE6=Nos and Hörningen
TTITLE7=Opus One
TTITLE8=Schejken
TTITLE9=Movin' In
TTITLE10=Mustaschen
TTITLE11=Sing As We Go
TTITLE12=Vårat gäng (Live) and Johnny han skakar
TTITLE13=Data track
EXTD=YEAR: 2006
EXTT0=
EXTT1=
EXTT2=
EXTT3=
EXTT4=
EXTT5=
EXTT6=
EXTT7=
EXTT8=
EXTT9=
EXTT10=
EXTT11=
EXTT12=
EXTT13=
PLAYORDER=
